<svg preserveAspectRatio="none" overflow="visible" style="display: block;" width="18" height="18" viewBox="0 0 18 18" fill="none" xmlns="http://www.w3.org/2000/svg">
<g id="Ionicons / shield-checkmark-outline">
<path id="Vector" fill-rule="evenodd" clip-rule="evenodd" d="M12.1806 5.76221C12.4155 5.96553 12.4411 6.32076 12.2377 6.55565L8.34247 11.0557C8.24092 11.173 8.09535 11.2432 7.94025 11.2495C7.78522 11.2559 7.6344 11.1979 7.52355 11.0893L5.79384 9.3948C5.57192 9.17737 5.56827 8.82128 5.78567 8.59935C6.00307 8.37743 6.35921 8.37375 6.58112 8.59117L7.88348 9.867L11.3872 5.81936C11.5905 5.58447 11.9458 5.55889 12.1806 5.76221Z" fill="#F59E0B"/>
<path id="Vector_2" fill-rule="evenodd" clip-rule="evenodd" d="M8.76848 1.17485C8.91563 1.10838 9.0843 1.10838 9.23152 1.17485C12.0281 2.43785 13.2835 2.84137 16.3801 3.39685C16.6351 3.44258 16.8259 3.65655 16.8422 3.91509C17.4368 13.3374 9.79013 16.6006 9.21015 16.8343C9.0753 16.8886 8.9247 16.8886 8.78985 16.8343C8.2098 16.6006 0.563245 13.3374 1.15774 3.91509C1.17405 3.65655 1.36483 3.44258 1.6198 3.39685C4.71644 2.84137 5.97185 2.43785 8.76848 1.17485ZM2.25909 4.42381C1.99386 12.0982 7.74638 15.1315 9 15.7C10.2536 15.1315 16.0061 12.0982 15.7408 4.42381C12.9425 3.90431 11.5889 3.46436 9 2.30431C6.411 3.46436 5.05746 3.90431 2.25909 4.42381Z" fill="#F59E0B"/>
</g>
</svg>
