<svg preserveAspectRatio="none" overflow="visible" style="display: block;" width="21" height="21" viewBox="0 0 21 21" fill="none" xmlns="http://www.w3.org/2000/svg">
<g id="icon / ionicons / outline / add-circle-outline">
<path id="Vector" fill-rule="evenodd" clip-rule="evenodd" d="M1.96875 10.5C1.96875 5.78991 5.78991 1.96875 10.5 1.96875C15.2101 1.96875 19.0312 5.78991 19.0312 10.5C19.0312 15.2101 15.2101 19.0312 10.5 19.0312C5.78991 19.0312 1.96875 15.2101 1.96875 10.5ZM10.5 3.28125C6.51478 3.28125 3.28125 6.51478 3.28125 10.5C3.28125 14.4852 6.51478 17.7188 10.5 17.7188C14.4852 17.7188 17.7188 14.4852 17.7188 10.5C17.7188 6.51478 14.4852 3.28125 10.5 3.28125Z" fill="#F5F7FA"/>
<path id="Vector_2" fill-rule="evenodd" clip-rule="evenodd" d="M10.5 6.5625C10.8624 6.5625 11.1562 6.85632 11.1562 7.21875V13.7812C11.1562 14.1437 10.8624 14.4375 10.5 14.4375C10.1376 14.4375 9.84375 14.1437 9.84375 13.7812V7.21875C9.84375 6.85632 10.1376 6.5625 10.5 6.5625Z" fill="#F5F7FA"/>
<path id="Vector_3" fill-rule="evenodd" clip-rule="evenodd" d="M6.5625 10.5C6.5625 10.1376 6.85632 9.84375 7.21875 9.84375H13.7812C14.1437 9.84375 14.4375 10.1376 14.4375 10.5C14.4375 10.8624 14.1437 11.1562 13.7812 11.1562H7.21875C6.85632 11.1562 6.5625 10.8624 6.5625 10.5Z" fill="#F5F7FA"/>
</g>
</svg>
