<svg preserveAspectRatio="none" overflow="visible" style="display: block;" width="16" height="16" viewBox="0 0 16 16" fill="none" xmlns="http://www.w3.org/2000/svg">
<g id="Icon / Notifications">
<path id="Vector" fill-rule="evenodd" clip-rule="evenodd" d="M6.14895 2.51734C6.37259 1.76628 7.02847 1 7.99993 1C8.97167 1 9.62693 1.76631 9.85227 2.51596C9.8534 2.51735 9.85487 2.51912 9.85687 2.52115C9.86147 2.52597 9.86667 2.53039 9.87167 2.53383C9.8754 2.53645 9.87767 2.53757 9.87793 2.53771C10.4435 2.77055 11.1091 3.14247 11.6297 3.82343C12.1545 4.50985 12.4959 5.46275 12.4959 6.7922C12.4959 8.11767 12.6357 8.84453 12.8417 9.34353C13.0223 9.78107 13.2597 10.0687 13.5975 10.4779C13.6469 10.5377 13.6984 10.6 13.7521 10.6658C14.3749 11.4286 13.787 12.5 12.8278 12.5H3.17527C2.21783 12.5 1.61991 11.4342 2.24776 10.6658C2.30157 10.6 2.35309 10.5375 2.40247 10.4777C2.74029 10.0686 2.97777 9.78093 3.15849 9.3434C3.36461 8.8444 3.50479 8.11753 3.50558 6.7922M6.14895 2.51734C6.14809 2.51837 6.14701 2.51957 6.14569 2.52094C6.14143 2.52535 6.13641 2.52961 6.13139 2.53307C6.12673 2.53629 6.12393 2.53753 6.12393 2.53754C5.55817 2.77052 4.892 3.14187 4.37135 3.82266C3.84658 4.50883 3.50563 5.46187 3.50558 6.7922M7.99993 2C7.615 2 7.24733 2.32101 7.10507 2.81049L7.10473 2.81174C7.013 3.12432 6.759 3.35762 6.50441 3.46233C6.50445 3.46232 6.50437 3.46235 6.50441 3.46233C6.02677 3.65904 5.53835 3.94285 5.16567 4.43015C4.79712 4.91206 4.50558 5.64046 4.50558 6.7922C4.50478 8.17447 4.36091 9.05173 4.08275 9.7252C3.84076 10.3111 3.50296 10.7181 3.1678 11.1221C3.11909 11.1808 3.07044 11.2395 3.02215 11.2985C3.00225 11.3229 2.99665 11.3429 2.99529 11.3579C2.99375 11.375 2.99695 11.3953 3.00765 11.4163C3.02624 11.4527 3.0725 11.5 3.17527 11.5H12.8278C12.9268 11.5 12.9723 11.4543 12.9913 11.4169C13.0116 11.3768 13.0091 11.337 12.9777 11.2985C12.9295 11.2395 12.8809 11.1809 12.8322 11.1222C12.497 10.7182 12.1591 10.311 11.9173 9.72507C11.6393 9.05153 11.4959 8.17447 11.4959 6.7922C11.4959 5.64193 11.2041 4.91327 10.8353 4.43079C10.4623 3.94289 9.97373 3.65857 9.49713 3.46235C9.23967 3.35647 8.9884 3.11991 8.8972 2.81253L8.8968 2.81127C8.75267 2.32077 8.38493 2 7.99993 2Z" fill="#8B5CF6"/>
<path id="Vector_2" fill-rule="evenodd" clip-rule="evenodd" d="M5.99992 11.5C6.27606 11.5 6.49992 11.7239 6.49992 12V12.5C6.49992 12.8978 6.65795 13.2793 6.93927 13.5607C7.22053 13.8419 7.60207 14 7.99993 14C8.39773 14 8.77927 13.8419 9.0606 13.5607C9.34187 13.2793 9.49993 12.8978 9.49993 12.5V12C9.49993 11.7239 9.7238 11.5 9.99993 11.5C10.2761 11.5 10.4999 11.7239 10.4999 12V12.5C10.4999 13.1631 10.2365 13.7989 9.76767 14.2677C9.29887 14.7366 8.66293 15 7.99993 15C7.33687 15 6.701 14.7366 6.23215 14.2677C5.76331 13.7989 5.49992 13.1631 5.49992 12.5V12C5.49992 11.7239 5.72377 11.5 5.99992 11.5Z" fill="#8B5CF6"/>
</g>
</svg>
