<svg preserveAspectRatio="none" overflow="visible" style="display: block;" width="19.5" height="14.25" viewBox="0 0 19.5 14.25" fill="none" xmlns="http://www.w3.org/2000/svg">
<g id="Vector">
<path fill-rule="evenodd" clip-rule="evenodd" d="M12.2197 0.21967C12.5126 -0.0732233 12.9874 -0.0732233 13.2803 0.21967L15.5303 2.46967C15.8232 2.76256 15.8232 3.23744 15.5303 3.53033L13.2803 5.78033C12.9874 6.07322 12.5126 6.07322 12.2197 5.78033C11.9268 5.48744 11.9268 5.01256 12.2197 4.71967L13.9393 3L12.2197 1.28033C11.9268 0.987437 11.9268 0.512563 12.2197 0.21967Z" fill="#1E293B"/>
<path fill-rule="evenodd" clip-rule="evenodd" d="M4.49776 2.25L4.5 2.25H14.25C14.6642 2.25 15 2.58579 15 3C15 3.41421 14.6642 3.75 14.25 3.75H4.50118C3.70605 3.75265 2.94422 4.06969 2.38196 4.63196C1.81969 5.19422 1.50265 5.95605 1.5 6.75118V7.5C1.5 7.91421 1.16421 8.25 0.75 8.25C0.335786 8.25 0 7.91421 0 7.5V6.75L3.35276e-06 6.74776C0.00356269 5.55598 0.478575 4.41402 1.3213 3.5713C2.16402 2.72857 3.30598 2.25356 4.49776 2.25Z" fill="#1E293B"/>
<path fill-rule="evenodd" clip-rule="evenodd" d="M7.28033 8.46967C7.57322 8.76256 7.57322 9.23744 7.28033 9.53033L5.56066 11.25L7.28033 12.9697C7.57322 13.2626 7.57322 13.7374 7.28033 14.0303C6.98744 14.3232 6.51256 14.3232 6.21967 14.0303L3.96967 11.7803C3.67678 11.4874 3.67678 11.0126 3.96967 10.7197L6.21967 8.46967C6.51256 8.17678 6.98744 8.17678 7.28033 8.46967Z" fill="#1E293B"/>
<path fill-rule="evenodd" clip-rule="evenodd" d="M18.75 6C19.1642 6 19.5 6.33579 19.5 6.75V7.5L19.5 7.50224C19.4964 8.69402 19.0214 9.83598 18.1787 10.6787C17.336 11.5214 16.194 11.9964 15.0022 12L15 12H5.25C4.83579 12 4.5 11.6642 4.5 11.25C4.5 10.8358 4.83579 10.5 5.25 10.5H14.9988C15.7939 10.4974 16.5558 10.1803 17.118 9.61804C17.6803 9.05574 17.9974 8.29386 18 7.49867V6.75C18 6.33579 18.3358 6 18.75 6Z" fill="#1E293B"/>
</g>
</svg>
