<svg preserveAspectRatio="none" overflow="visible" style="display: block;" width="23.1679" height="23.1679" viewBox="0 0 23.1679 23.1679" fill="none" xmlns="http://www.w3.org/2000/svg">
<g id="icon / ionicons / outline / calendar-outline">
<path id="Vector" fill-rule="evenodd" clip-rule="evenodd" d="M4.34398 4.34398C3.54427 4.34398 2.89599 4.99226 2.89599 5.79197V18.8239C2.89599 19.6236 3.54427 20.2719 4.34398 20.2719H18.8239C19.6236 20.2719 20.2719 19.6236 20.2719 18.8239V5.79197C20.2719 4.99226 19.6236 4.34398 18.8239 4.34398H4.34398ZM1.44799 5.79197C1.44799 4.19257 2.74457 2.89599 4.34398 2.89599H18.8239C20.4234 2.89599 21.7199 4.19257 21.7199 5.79197V18.8239C21.7199 20.4234 20.4234 21.7199 18.8239 21.7199H4.34398C2.74457 21.7199 1.44799 20.4234 1.44799 18.8239V5.79197Z" fill="#F5F5F5"/>
<path id="Vector_2" d="M13.3939 11.5839C13.9937 11.5839 14.4799 11.0977 14.4799 10.4979C14.4799 9.89819 13.9937 9.41195 13.3939 9.41195C12.7942 9.41195 12.3079 9.89819 12.3079 10.4979C12.3079 11.0977 12.7942 11.5839 13.3939 11.5839Z" fill="#F5F5F5"/>
<path id="Vector_3" d="M17.0139 11.5839C17.6137 11.5839 18.0999 11.0977 18.0999 10.4979C18.0999 9.89819 17.6137 9.41195 17.0139 9.41195C16.4142 9.41195 15.9279 9.89819 15.9279 10.4979C15.9279 11.0977 16.4142 11.5839 17.0139 11.5839Z" fill="#F5F5F5"/>
<path id="Vector_4" d="M13.3939 15.2039C13.9937 15.2039 14.4799 14.7177 14.4799 14.1179C14.4799 13.5182 13.9937 13.0319 13.3939 13.0319C12.7942 13.0319 12.3079 13.5182 12.3079 14.1179C12.3079 14.7177 12.7942 15.2039 13.3939 15.2039Z" fill="#F5F5F5"/>
<path id="Vector_5" d="M17.0139 15.2039C17.6137 15.2039 18.0999 14.7177 18.0999 14.1179C18.0999 13.5182 17.6137 13.0319 17.0139 13.0319C16.4142 13.0319 15.9279 13.5182 15.9279 14.1179C15.9279 14.7177 16.4142 15.2039 17.0139 15.2039Z" fill="#F5F5F5"/>
<path id="Vector_6" d="M6.15397 15.2039C6.75375 15.2039 7.23996 14.7177 7.23996 14.1179C7.23996 13.5182 6.75375 13.0319 6.15397 13.0319C5.55419 13.0319 5.06797 13.5182 5.06797 14.1179C5.06797 14.7177 5.55419 15.2039 6.15397 15.2039Z" fill="#F5F5F5"/>
<path id="Vector_7" d="M9.77395 15.2039C10.3737 15.2039 10.8599 14.7177 10.8599 14.1179C10.8599 13.5182 10.3737 13.0319 9.77395 13.0319C9.17417 13.0319 8.68796 13.5182 8.68796 14.1179C8.68796 14.7177 9.17417 15.2039 9.77395 15.2039Z" fill="#F5F5F5"/>
<path id="Vector_8" d="M6.15397 18.8239C6.75375 18.8239 7.23996 18.3377 7.23996 17.7379C7.23996 17.1382 6.75375 16.6519 6.15397 16.6519C5.55419 16.6519 5.06797 17.1382 5.06797 17.7379C5.06797 18.3377 5.55419 18.8239 6.15397 18.8239Z" fill="#F5F5F5"/>
<path id="Vector_9" d="M9.77395 18.8239C10.3737 18.8239 10.8599 18.3377 10.8599 17.7379C10.8599 17.1382 10.3737 16.6519 9.77395 16.6519C9.17417 16.6519 8.68796 17.1382 8.68796 17.7379C8.68796 18.3377 9.17417 18.8239 9.77395 18.8239Z" fill="#F5F5F5"/>
<path id="Vector_10" d="M13.3939 18.8239C13.9937 18.8239 14.4799 18.3377 14.4799 17.7379C14.4799 17.1382 13.9937 16.6519 13.3939 16.6519C12.7942 16.6519 12.3079 17.1382 12.3079 17.7379C12.3079 18.3377 12.7942 18.8239 13.3939 18.8239Z" fill="#F5F5F5"/>
<path id="Vector_11" fill-rule="evenodd" clip-rule="evenodd" d="M5.79197 1.44799C6.19182 1.44799 6.51597 1.77214 6.51597 2.17199V3.61998C6.51597 4.01983 6.19182 4.34398 5.79197 4.34398C5.39212 4.34398 5.06797 4.01983 5.06797 3.61998V2.17199C5.06797 1.77214 5.39212 1.44799 5.79197 1.44799Z" fill="#F5F5F5"/>
<path id="Vector_12" fill-rule="evenodd" clip-rule="evenodd" d="M17.3759 1.44799C17.7758 1.44799 18.0999 1.77214 18.0999 2.17199V3.61998C18.0999 4.01983 17.7758 4.34398 17.3759 4.34398C16.9761 4.34398 16.6519 4.01983 16.6519 3.61998V2.17199C16.6519 1.77214 16.9761 1.44799 17.3759 1.44799Z" fill="#F5F5F5"/>
<path id="Vector_13" fill-rule="evenodd" clip-rule="evenodd" d="M2.17199 6.51597H20.9959V7.96396H2.17199V6.51597Z" fill="#F5F5F5"/>
</g>
</svg>
