<svg preserveAspectRatio="none" overflow="visible" style="display: block;" width="24" height="24" viewBox="0 0 24 24" fill="none" xmlns="http://www.w3.org/2000/svg">
<g id="icon / tabler-icons / shield-lock" clip-path="url(#clip0_0_53)">
<g id="Vector">
</g>
<path id="Vector_2" d="M12 3C14.3358 5.06658 17.3845 6.14257 20.5 6C20.9536 7.54302 21.0924 9.16147 20.9081 10.7592C20.7239 12.3569 20.2203 13.9013 19.4274 15.3005C18.6345 16.6998 17.5684 17.9254 16.2925 18.9045C15.0165 19.8836 13.5568 20.5962 12 21C10.4432 20.5962 8.98348 19.8836 7.70755 18.9045C6.43161 17.9254 5.36551 16.6998 4.5726 15.3005C3.77968 13.9013 3.27613 12.3569 3.09188 10.7592C2.90762 9.16147 3.04641 7.54302 3.5 6C6.61553 6.14257 9.66417 5.06658 12 3" stroke="#001219" stroke-width="2" stroke-linecap="round" stroke-linejoin="round"/>
<path id="Vector_3" d="M12 12C12.5523 12 13 11.5523 13 11C13 10.4477 12.5523 10 12 10C11.4477 10 11 10.4477 11 11C11 11.5523 11.4477 12 12 12Z" stroke="#001219" stroke-width="2" stroke-linecap="round" stroke-linejoin="round"/>
<path id="Vector_4" d="M12 12V14.5" stroke="#001219" stroke-width="2" stroke-linecap="round" stroke-linejoin="round"/>
</g>
<defs>
<clipPath id="clip0_0_53">
<rect width="24" height="24" fill="white"/>
</clipPath>
</defs>
</svg>
